PathFileType	4	(X/Y/Z)	/Users/itak/Documents/Research/Walk-IL/dataset/trc/00400_00012.trc
DataRate	CameraRate	NumFrames	NumMarkers	Units	OrigDataRate	OrigDataStartFrame	OrigNumFrames
100.000000	100.000000	4	53	mm	100.000000	324	649
Frame#	Time	RPSI			LPSI			L3			STRN			T10			C7			CLAV			RBAK			LBAK			LSHO			LUPA			LAEL			LAOL			LWTS			LWPS			LFRA			LIFD			LHPS			LHTS			RSHO			RUPA			RAEL			RAOL			RWTS			RWPS			RFRA			RIFD			RHTS			RHPS			RBHD			LFHD			RFHD			LBHD			LHIP			RHIP			RASI			LASI			LKNE			LTHI			LANK			LTIP			LTOE			LMT1			LMT5			LHEE			RKNE			RTHI			RANK			RTIP			RTOE			RMT1			RMT5			RHEE			
		X1	Y1	Z1	X2	Y2	Z2	X3	Y3	Z3	X4	Y4	Z4	X5	Y5	Z5	X6	Y6	Z6	X7	Y7	Z7	X8	Y8	Z8	X9	Y9	Z9	X10	Y10	Z10	X11	Y11	Z11	X12	Y12	Z12	X13	Y13	Z13	X14	Y14	Z14	X15	Y15	Z15	X16	Y16	Z16	X17	Y17	Z17	X18	Y18	Z18	X19	Y19	Z19	X20	Y20	Z20	X21	Y21	Z21	X22	Y22	Z22	X23	Y23	Z23	X24	Y24	Z24	X25	Y25	Z25	X26	Y26	Z26	X27	Y27	Z27	X28	Y28	Z28	X29	Y29	Z29	X30	Y30	Z30	X31	Y31	Z31	X32	Y32	Z32	X33	Y33	Z33	X34	Y34	Z34	X35	Y35	Z35	X36	Y36	Z36	X37	Y37	Z37	X38	Y38	Z38	X39	Y39	Z39	X40	Y40	Z40	X41	Y41	Z41	X42	Y42	Z42	X43	Y43	Z43	X44	Y44	Z44	X45	Y45	Z45	X46	Y46	Z46	X47	Y47	Z47	X48	Y48	Z48	X49	Y49	Z49	X50	Y50	Z50	X51	Y51	Z51	X52	Y52	Z52	X53	Y53	Z53	

325	3.24	1069.262084960938	973.2154541015625	-422.2769165039062	1001.384033203125	946.8328857421875	-311.0489807128906	1035.7470703125	1039.853515625	-365.2918395996094	836.064208984375	1195.239990234375	-492.6097106933594	1040.649536132812	1143.6748046875	-349.0749816894531	997.477294921875	1390.983154296875	-354.506103515625	876.2352905273438	1313.518798828125	-454.4401245117188	1076.56982421875	1250.382690429688	-389.1583862304688	953.418212890625	1348.754516601562	-264.1453552246094	853.6809692382812	1359.517211914062	-271.0679931640625	849.5537109375	1240.899536132812	-201.7243347167969	846.0612182617188	1043.004516601562	-187.5147247314453	925.36669921875	1030.665283203125	-216.2909545898438	803.6698608398438	825.3527221679688	-270.1650390625	818.0415649414062	814.7288818359375	-191.8400115966797	836.214111328125	938.7019653320312	-186.3219604492188	777.0287475585938	647.8889770507812	-293.0674133300781	809.852783203125	730.3494262695312	-203.7982788085938	763.76171875	732.4279174804688	-279.1943359375	1045.654907226562	1381.59326171875	-513.327392578125	1098.098388671875	1327.224609375	-554.185546875	1156.114990234375	1071.665283203125	-593.0541381835938	1111.673217773438	1056.523193359375	-509.3332214355469	1013.459350585938	880.1871948242188	-683.8298950195312	1083.805053710938	859.2322998046875	-696.3880004882812	1143.652709960938	1006.643371582031	-627.6785278320312	990.4837646484375	708.175537109375	-716.4163208007812	998.5701904296875	780.8471069335938	-726.1874389648438	1068.011474609375	777.506103515625	-714.2820434570312	1000.041442871094	1583.77685546875	-450.0490112304688	825.0343627929688	1575.925903320312	-357.2048034667969	867.2882080078125	1597.464477539062	-469.3126220703125	959.3416748046875	1551.421508789062	-297.0037231445312	868.8076171875	927.78173828125	-266.5591735839844	1063.72900390625	962.4069213867188	-565.7453002929688	922.1625366210938	962.7340698242188	-595.4065551757812	798.5916137695312	934.1727905273438	-365.6882934570312	753.9774780273438	461.2847290039062	-424.4631958007812	779.164794921875	588.8363037109375	-383.1654663085938	1021.831176757812	147.7976989746094	-232.6415557861328	879.7096557617188	291.9924926757812	-321.5760498046875	961.37158203125	41.14585494995117	-408.5102233886719	1021.062072753906	86.5924072265625	-379.8227844238281	954.275634765625	65.9530029296875	-301.171875	1079.65966796875	180.3149261474609	-249.1452331542969	1017.833435058594	467.3809509277344	-609.6972045898438	1002.268920898438	731.8519287109375	-628.3447875976562	1108.806274414062	39.53536605834961	-566.2977905273438	1010.699340820312	338.3837890625	-607.2015380859375	899.397705078125	29.46144866943359	-611.9197387695312	947.7196655273438	35.17651748657227	-545.91455078125	1020.120483398438	33.36991119384766	-617.7767333984375	1120.447387695312	34.7267951965332	-483.1994018554688	
326	3.25	1063.33203125	973.500244140625	-429.59716796875	997.2264404296875	947.3192749023438	-317.3618469238281	1031.263305664062	1040.854614257812	-372.4997253417969	828.148193359375	1195.283447265625	-497.5122680664062	1035.798095703125	1144.737426757812	-357.1807556152344	991.1921997070312	1391.78759765625	-362.8896179199219	868.3372192382812	1313.861938476562	-460.220703125	1070.193725585938	1251.476806640625	-399.08251953125	949.0982055664062	1349.46435546875	-271.6816711425781	849.1128540039062	1359.724487304688	-276.5033264160156	847.1621704101562	1241.3427734375	-206.7005310058594	845.75439453125	1043.817504882812	-191.2059326171875	924.0451049804688	1031.51806640625	-222.8135833740234	804.6793212890625	823.07177734375	-267.6279602050781	823.2538452148438	814.6134033203125	-189.9021911621094	838.1310424804688	939.2061157226562	-187.8684692382812	778.7430419921875	645.6994018554688	-290.3969116210938	816.6859741210938	730.1580810546875	-199.4552764892578	765.0379638671875	730.1724853515625	-276.2178955078125	1036.13330078125	1382.65087890625	-522.545166015625	1087.85693359375	1328.471313476562	-564.959228515625	1144.462646484375	1073.032348632812	-608.1526489257812	1102.713134765625	1057.284423828125	-522.9534912109375	995.1550903320312	886.1381225585938	-697.552490234375	1064.523559570312	863.8436889648438	-712.7794799804688	1129.808227539062	1008.718811035156	-643.3685913085938	967.4237060546875	715.3207397460938	-732.6446533203125	976.7168579101562	787.9639892578125	-741.2774047851562	1046.714965820312	783.4487915039062	-731.951171875	991.8231811523438	1584.318359375	-457.7532043457031	818.35205078125	1576.265258789062	-362.0803833007812	858.7808227539062	1598.111572265625	-474.8338623046875	953.5530395507812	1551.517578125	-304.1113891601562	865.0701293945312	929.0725708007812	-271.0076293945312	1055.896118164062	962.1044311523438	-573.0112915039062	913.9593505859375	962.2613525390625	-601.218017578125	793.5123901367188	935.6726684570312	-369.5519409179688	739.0170288085938	466.2476196289062	-432.5465087890625	767.5355834960938	592.6334228515625	-389.6475219726562	1003.736633300781	141.8964385986328	-255.6384429931641	863.5425415039062	291.9561462402344	-336.8625183105469	930.2618408203125	42.01821899414062	-430.556640625	994.2096557617188	83.24655151367188	-403.7414245605469	928.567138671875	65.69854736328125	-322.7684020996094	1062.696166992188	171.6236724853516	-274.2106628417969	1015.170104980469	466.6858520507812	-611.7050170898438	994.5011596679688	730.8914184570312	-632.8936767578125	1107.9150390625	39.23033905029297	-566.103759765625	1008.876770019531	337.73291015625	-608.2064819335938	899.0614013671875	29.20987129211426	-612.1837768554688	947.4886474609375	34.94200897216797	-545.7750854492188	1019.832092285156	33.58987808227539	-617.5260009765625	1120.307739257812	35.27937698364258	-483.0382995605469	
327	3.26	1057.299194335938	973.565185546875	-436.9357604980469	992.9556274414062	947.6046142578125	-323.6800842285156	1026.617431640625	1041.623657226562	-379.7707214355469	820.2164306640625	1195.150756835938	-502.3186340332031	1030.890625	1145.563598632812	-365.3027954101562	984.822509765625	1392.348510742188	-371.1210632324219	860.427001953125	1314.029907226562	-465.8947448730469	1063.675903320312	1252.297485351562	-408.780029296875	944.65478515625	1349.942260742188	-279.1399536132812	844.4813232421875	1359.7666015625	-281.8924560546875	844.7374267578125	1241.7080078125	-211.6036224365234	845.4542846679688	1044.5732421875	-194.7243957519531	922.6646728515625	1032.28515625	-229.0880432128906	805.58642578125	821.1254272460938	-265.3016967773438	828.1550903320312	814.7512817382812	-188.3347473144531	839.9371948242188	939.7986450195312	-189.4458312988281	780.3656616210938	643.842041015625	-288.0145874023438	823.2323608398438	730.2802734375	-195.7044677734375	766.2274780273438	728.25830078125	-273.5034484863281	1026.612670898438	1383.436401367188	-531.5033569335938	1077.595458984375	1329.424072265625	-575.3606567382812	1132.575927734375	1074.099975585938	-622.7471923828125	1093.251586914062	1057.630615234375	-536.4153442382812	976.8359985351562	892.0220947265625	-710.8079223632812	1045.144775390625	868.5078125	-728.6622924804688	1115.7763671875	1010.616516113281	-658.5546875	944.358642578125	722.5903930664062	-748.4183959960938	954.8909912109375	795.1744384765625	-755.878173828125	1025.30029296875	789.4613037109375	-749.0682373046875	983.4942016601562	1584.670776367188	-465.3652648925781	811.5914306640625	1576.370971679688	-366.8915100097656	850.1890258789062	1598.491577148438	-480.266845703125	947.6611938476562	1551.470825195312	-311.1414184570312	861.303955078125	930.154541015625	-275.5001525878906	1048.01513671875	961.6638793945312	-580.181396484375	905.7211303710938	961.63525390625	-606.9270629882812	788.3470458984375	936.979248046875	-373.4107055664062	724.4652709960938	471.0360412597656	-439.9775695800781	756.158447265625	596.3486328125	-395.5899047851562	984.4296264648438	134.929931640625	-279.11376953125	846.9893188476562	291.2515563964844	-352.0602416992188	898.5038452148438	42.94416046142578	-452.6272583007812	966.3931884765625	79.77613830566406	-427.7715148925781	902.1665649414062	64.82642364501953	-344.6001892089844	1044.181274414062	161.7691802978516	-299.905029296875	1012.678039550781	466.0005798339844	-613.75537109375	986.7880249023438	729.8665161132812	-637.3523559570312	1107.064697265625	38.8823356628418	-565.939453125	1007.235595703125	337.1065063476562	-609.26953125	898.800537109375	29.01891326904297	-612.4114990234375	947.3265380859375	34.78446197509766	-545.6217651367188	1019.556823730469	33.80717849731445	-617.2876586914062	1120.209228515625	35.78890991210938	-482.9068603515625	
328	3.27	1051.162353515625	973.4112548828125	-444.2773742675781	988.5524291992188	947.6610107421875	-330.0126647949219	1021.800903320312	1042.136962890625	-387.0829467773438	812.252685546875	1194.821166992188	-507.0397338867188	1025.873413085938	1146.137939453125	-373.4360046386719	978.3591918945312	1392.654052734375	-379.2027587890625	852.49853515625	1313.993286132812	-471.474365234375	1057.017822265625	1252.829956054688	-418.2728271484375	940.0728149414062	1350.179809570312	-286.5196533203125	839.7708740234375	1359.627563476562	-287.2473754882812	842.26416015625	1241.988891601562	-216.4412994384766	845.1539916992188	1045.2626953125	-198.0895843505859	921.2384643554688	1032.966674804688	-235.1017303466797	806.3500366210938	819.4902954101562	-263.251953125	832.6471557617188	815.0816650390625	-187.1594696044922	841.59912109375	940.4447631835938	-191.0610961914062	781.874755859375	642.2771606445312	-285.9237060546875	829.3795166015625	730.6309814453125	-192.5864105224609	767.2938232421875	726.6460571289062	-271.0792541503906	1017.089904785156	1383.938110351562	-540.2198486328125	1067.322143554688	1330.06591796875	-585.4108276367188	1120.474487304688	1074.855102539062	-636.8295288085938	1083.291748046875	1057.556518554688	-549.666015625	958.5368041992188	897.80615234375	-723.6011962890625	1025.717651367188	873.1957397460938	-744.0235595703125	1101.582641601562	1012.316467285156	-673.22314453125	921.3140258789062	729.9524536132812	-763.7330932617188	933.1304931640625	802.4376831054688	-769.990966796875	1003.786376953125	795.4609985351562	-765.6001586914062	975.0681762695312	1584.818115234375	-472.8901672363281	804.7574462890625	1576.236450195312	-371.6427307128906	841.5262451171875	1598.60107421875	-485.6168823242188	941.6759643554688	1551.259033203125	-318.0910339355469	857.5066528320312	930.9966430664062	-280.0385131835938	1040.084350585938	961.0726318359375	-587.2634887695312	897.4426879882812	960.84912109375	-612.541748046875	783.0772705078125	938.0570068359375	-377.2768859863281	710.3550415039062	475.5247497558594	-446.8253173828125	745.0528564453125	599.8915405273438	-401.0476989746094	963.8341674804688	127.0397109985352	-302.9742736816406	830.0022583007812	289.85791015625	-367.1581115722656	866.130615234375	44.00392150878906	-474.6519165039062	937.5597534179688	76.32577514648438	-451.8264465332031	875.0673217773438	63.4190788269043	-366.5872497558594	1024.026733398438	150.9116363525391	-326.123779296875	1010.332397460938	465.3229675292969	-615.8504638671875	979.2078247070312	728.7664794921875	-641.7343139648438	1106.245483398438	38.47488784790039	-565.7984619140625	1005.749450683594	336.5014953613281	-610.3884887695312	898.61083984375	28.88455009460449	-612.59716796875	947.22998046875	34.70309829711914	-545.4537963867188	1019.293090820312	34.01754379272461	-617.0598754882812	1120.141723632812	36.23887634277344	-482.7986755371094	
